<svg width="57" height="229" viewBox="0 0 57 229" fill="none" xmlns="http://www.w3.org/2000/svg">
<path d="M-0.217174 3.77765L-0.0396729 224.917L33.3583 224.729L33.1808 3.5898L-0.217174 3.77765Z" fill="#202323"/>
<path d="M24.218 65.809L7.77979 66.141L7.69042 60.6064C7.66859 59.2547 7.8681 58.0325 8.28895 56.9399C8.70981 55.8473 9.2976 54.9096 10.0523 54.1269C10.8069 53.3321 11.674 52.7238 12.6538 52.302C13.6334 51.8681 14.6712 51.64 15.7671 51.6179C16.8508 51.596 17.8952 51.782 18.9004 52.1759C19.8932 52.5578 20.7794 53.1307 21.5591 53.8946C22.3264 54.6465 22.9441 55.5598 23.4121 56.6345C23.868 57.7094 24.1068 58.9227 24.1287 60.2744L24.218 65.809ZM21.4862 62.9589L21.4482 60.6026C21.4318 59.5919 21.2655 58.7182 20.9491 57.9815C20.6327 57.2449 20.2086 56.6322 19.677 56.1435C19.1453 55.6548 18.5488 55.2953 17.8873 55.065C17.2259 54.8348 16.5359 54.7269 15.8175 54.7414C15.0991 54.7559 14.4131 54.8916 13.7595 55.1484C13.0937 55.4055 12.5031 55.7889 11.9875 56.2988C11.472 56.8086 11.0741 57.4379 10.7939 58.1866C10.5015 58.9356 10.3634 59.8154 10.3798 60.8261L10.4178 63.1825L21.4862 62.9589Z" fill="#EBEBEB"/>
<path d="M24.4851 82.3512L7.34649 75.5164L7.3459 75.4799L24.2527 67.9575L24.3017 70.9897L20.9089 72.4652L20.9997 78.0911L24.4379 79.4286L24.4851 82.3512ZM18.5728 77.1534L18.5141 73.5185L16.4641 74.4187C16.0287 74.6102 15.6053 74.7893 15.1938 74.9559C14.7702 75.1228 14.2795 75.285 13.7218 75.4425C14.284 75.5651 14.7735 75.7014 15.19 75.8513C15.6064 75.9891 16.0414 76.1509 16.4951 76.3366L18.5728 77.1534Z" fill="#EBEBEB"/>
<path d="M25.0683 84.523L14.7678 94.9633L24.6856 94.763L24.7307 97.5577L7.74451 97.9008L7.74392 97.8642L18.0262 87.4243L8.12669 87.6242L8.08156 84.8295L25.0677 84.4864L25.0683 84.523Z" fill="#EBEBEB"/>
<path d="M25.2466 109.137C25.2658 110.331 25.0647 111.456 24.6433 112.512C24.2097 113.568 23.6097 114.506 22.8434 115.325C22.0769 116.133 21.1798 116.772 20.152 117.243C19.1241 117.703 18.0196 117.944 16.8385 117.968C15.6574 117.992 14.5458 117.795 13.5037 117.378C12.4614 116.948 11.5442 116.345 10.7521 115.57C9.95988 114.782 9.33611 113.868 8.88085 112.83C8.41341 111.792 8.17005 110.676 8.15078 109.483C8.13131 108.277 8.33839 107.146 8.77201 106.09C9.19345 105.034 9.78743 104.102 10.5539 103.295C11.3205 102.487 12.2176 101.848 13.2453 101.377C14.273 100.905 15.3774 100.658 16.5586 100.634C17.7397 100.61 18.8514 100.813 19.8937 101.242C20.9359 101.672 21.8531 102.275 22.6452 103.051C23.4373 103.826 24.067 104.733 24.5345 105.771C24.9897 106.81 25.2271 107.932 25.2466 109.137ZM22.3607 109.196C22.3481 108.416 22.1903 107.695 21.8873 107.031C21.5842 106.367 21.1729 105.785 20.6532 105.283C20.1213 104.783 19.5122 104.399 18.8258 104.133C18.1394 103.866 17.4005 103.741 16.609 103.757C15.8175 103.773 15.0831 103.928 14.4058 104.222C13.7284 104.516 13.1381 104.924 12.635 105.445C12.1197 105.967 11.7213 106.566 11.4399 107.242C11.1463 107.918 11.0058 108.645 11.0183 109.425C11.0309 110.204 11.1948 110.926 11.5101 111.589C11.8131 112.253 12.2306 112.835 12.7624 113.336C13.2819 113.825 13.8849 114.209 14.5715 114.487C15.2579 114.754 15.9969 114.879 16.7883 114.863C17.5798 114.847 18.3142 114.692 18.9916 114.398C19.6687 114.092 20.2651 113.684 20.7806 113.174C21.2838 112.653 21.6761 112.054 21.9575 111.378C22.2389 110.703 22.3733 109.975 22.3607 109.196ZM6.85789 113.145L4.78485 113.753C4.29367 113.507 3.91688 113.18 3.65448 112.771C3.39209 112.362 3.25716 111.926 3.24969 111.464C3.24202 110.989 3.33824 110.536 3.53836 110.106C3.73848 109.675 3.93879 109.257 4.13931 108.851C4.33982 108.445 4.43693 108.047 4.43063 107.657C4.42434 107.268 4.30935 106.935 4.08565 106.659C3.84958 106.372 3.52297 106.135 3.10582 105.948L5.19712 105.34C5.67613 105.586 6.04683 105.913 6.30922 106.322C6.57142 106.719 6.70635 107.155 6.71402 107.63C6.72149 108.092 6.62526 108.545 6.42534 108.988C6.22523 109.418 6.02491 109.836 5.8244 110.242C5.62369 110.636 5.52658 111.034 5.53307 111.436C5.53917 111.813 5.66035 112.152 5.89662 112.452C6.13269 112.739 6.45311 112.97 6.85789 113.145Z" fill="#EBEBEB"/>
<path d="M25.5016 124.929C25.5122 125.586 25.4312 126.228 25.2586 126.852C25.0979 127.465 24.8816 128.023 24.6096 128.528C24.3254 129.033 24.0036 129.466 23.644 129.827L20.27 129.073C20.7525 128.783 21.1913 128.421 21.5862 127.986C21.9688 127.54 22.2715 127.053 22.4944 126.524C22.7171 125.984 22.8239 125.434 22.8149 124.874C22.807 124.386 22.709 123.974 22.5209 123.637C22.3203 123.288 22.0602 123.019 21.7405 122.831C21.4086 122.642 21.0478 122.552 20.6581 122.56C20.1832 122.57 19.7954 122.687 19.4945 122.912C19.1936 123.138 18.9542 123.398 18.7763 123.694C18.5862 123.991 18.4441 124.243 18.35 124.452L17.3953 126.426C17.1477 126.931 16.8513 127.436 16.5062 127.943C16.149 128.449 15.6931 128.879 15.1385 129.231C14.5715 129.571 13.8679 129.75 13.0277 129.767C12.3459 129.781 11.7291 129.678 11.1774 129.457C10.6134 129.225 10.1269 128.894 9.71797 128.464C9.30907 128.033 8.99011 127.516 8.76111 126.911C8.5321 126.307 8.4115 125.627 8.39931 124.872C8.38397 123.922 8.5287 123.079 8.83349 122.342C9.1259 121.593 9.43894 120.99 9.77261 120.532L13.0912 121.251C12.6941 121.551 12.3405 121.906 12.0304 122.314C11.7201 122.71 11.4773 123.135 11.3019 123.589C11.1265 124.044 11.0426 124.502 11.05 124.965C11.0567 125.379 11.1417 125.737 11.3049 126.038C11.4557 126.327 11.6664 126.548 11.9368 126.701C12.1951 126.854 12.4947 126.927 12.8356 126.921C13.1644 126.914 13.4493 126.835 13.6905 126.684C13.9315 126.521 14.1412 126.309 14.3198 126.05C14.4861 125.791 14.64 125.514 14.7814 125.218L15.7358 123.226C15.877 122.918 16.0663 122.574 16.3038 122.191C16.541 121.797 16.8454 121.413 17.217 121.04C17.5764 120.667 18.0221 120.36 18.5541 120.118C19.0738 119.863 19.6989 119.729 20.4295 119.714C21.3671 119.695 22.2169 119.897 22.9789 120.321C23.7409 120.744 24.3475 121.347 24.7986 122.129C25.2497 122.912 25.4841 123.845 25.5016 124.929Z" fill="#EBEBEB"/>
<path d="M25.7337 138.174C25.7517 139.295 25.5304 140.298 25.0697 141.184C24.609 142.071 23.9505 142.778 23.0942 143.307C22.2377 143.824 21.219 144.094 20.0378 144.118L9.04248 144.34L8.99293 141.272L19.8422 141.052C20.4632 141.04 21.0031 140.907 21.4618 140.654C21.9206 140.401 22.2745 140.065 22.5235 139.646C22.7723 139.215 22.8923 138.725 22.8835 138.177C22.8748 137.641 22.7453 137.163 22.4949 136.741C22.2323 136.32 21.8738 135.993 21.4193 135.758C20.9648 135.524 20.4454 135.412 19.8609 135.424L8.90208 135.646L8.8543 132.686L19.7949 132.466C20.9882 132.441 22.0272 132.67 22.912 133.152C23.7967 133.633 24.4836 134.308 24.9727 135.175C25.4615 136.03 25.7152 137.03 25.7337 138.174Z" fill="#EBEBEB"/>
<path d="M25.6333 153.452L9.19507 153.784L9.14552 150.715L22.8988 150.437L22.8163 145.323L25.5012 145.269L25.6333 153.452Z" fill="#EBEBEB"/>
<path d="M26.1289 162.654C26.147 163.774 25.9257 164.777 25.465 165.664C25.0042 166.55 24.3457 167.258 23.4895 167.787C22.633 168.303 21.6142 168.574 20.4331 168.598L9.43774 168.82L9.38819 165.751L20.2374 165.532C20.8584 165.519 21.3983 165.387 21.8571 165.134C22.3159 164.881 22.6698 164.545 22.9188 164.126C23.1676 163.694 23.2876 163.204 23.2787 162.656C23.2701 162.121 23.1406 161.642 22.8901 161.221C22.6276 160.8 22.269 160.472 21.8146 160.238C21.3601 160.003 20.8406 159.892 20.2562 159.904L9.29735 160.125L9.24957 157.166L20.1901 156.945C21.3834 156.921 22.4225 157.15 23.3072 157.631C24.192 158.113 24.8789 158.787 25.3679 159.654C25.8568 160.509 26.1104 161.509 26.1289 162.654Z" fill="#EBEBEB"/>
<path d="M26.1277 184.07L8.98906 177.236L8.98848 177.199L25.8953 169.677L25.9442 172.709L22.5514 174.184L22.6423 179.81L26.0805 181.148L26.1277 184.07ZM20.2154 178.873L20.1567 175.238L18.1067 176.138C17.6713 176.329 17.2478 176.508 16.8364 176.675C16.4128 176.842 15.9221 177.004 15.3643 177.162C15.9266 177.284 16.416 177.421 16.8326 177.57C17.2489 177.708 17.684 177.87 18.1376 178.056L20.2154 178.873Z" fill="#EBEBEB"/>
<path d="M26.2782 193.394L9.83997 193.726L9.79041 190.658L23.5437 190.38L23.4612 185.266L26.1461 185.211L26.2782 193.394Z" fill="#EBEBEB"/>
</svg>
