<svg width="224" height="57" viewBox="0 0 224 57" fill="none" xmlns="http://www.w3.org/2000/svg">
<path d="M219.853 -1.24139e-05L0 23.819L3.75743 57.0054L223.61 33.1864L219.853 -1.24139e-05Z" fill="#202323"/>
<path d="M179.689 25.2389C179.349 25.2696 179.032 25.2188 178.739 25.0865C178.456 24.9409 178.217 24.7424 178.022 24.4911C177.838 24.2265 177.729 23.9184 177.696 23.5668C177.663 23.2273 177.714 22.917 177.846 22.636C177.989 22.3417 178.187 22.1037 178.439 21.9219C178.702 21.7269 179.003 21.614 179.343 21.5833C179.707 21.5503 180.03 21.6066 180.313 21.7522C180.607 21.8845 180.846 22.083 181.03 22.3476C181.213 22.6001 181.32 22.896 181.353 23.2355C181.385 23.575 181.335 23.8914 181.204 24.1845C181.073 24.4777 180.875 24.7217 180.613 24.9168C180.361 25.0985 180.053 25.2059 179.689 25.2389ZM180.309 31.7862C179.969 31.817 179.652 31.7662 179.358 31.6339C179.075 31.4883 178.836 31.2898 178.641 31.0384C178.457 30.7739 178.349 30.4658 178.315 30.1141C178.283 29.7746 178.333 29.4644 178.466 29.1834C178.609 28.8891 178.807 28.6511 179.059 28.4693C179.322 28.2743 179.623 28.1614 179.963 28.1306C180.326 28.0977 180.65 28.154 180.933 28.2996C181.227 28.4319 181.466 28.6304 181.65 28.895C181.833 29.1474 181.94 29.4434 181.972 29.7829C182.004 30.1224 181.955 30.4387 181.824 30.7319C181.692 31.025 181.495 31.2691 181.232 31.4641C180.98 31.6459 180.672 31.7533 180.309 31.7862Z" fill="#EBEBEB"/>
<path d="M160.675 33.9314L159.126 17.563L164.639 17.0636C165.985 16.9417 167.219 17.0501 168.34 17.3888C169.46 17.7275 170.439 18.2442 171.275 18.9389C172.124 19.6324 172.795 20.4521 173.288 21.398C173.793 22.3427 174.098 23.3607 174.201 24.4519C174.303 25.531 174.195 26.5864 173.877 27.618C173.57 28.6363 173.064 29.5626 172.36 30.3968C171.667 31.2177 170.802 31.9014 169.765 32.4478C168.727 32.982 167.534 33.3101 166.188 33.4321L160.675 33.9314ZM163.315 30.9959L165.662 30.7833C166.669 30.6921 167.528 30.4614 168.239 30.0913C168.95 29.7212 169.53 29.2529 169.978 28.6865C170.426 28.1201 170.74 27.4985 170.921 26.8218C171.101 26.1451 171.158 25.4491 171.09 24.7337C171.022 24.0184 170.836 23.3443 170.532 22.7115C170.226 22.0666 169.8 21.506 169.253 21.0297C168.706 20.5534 168.049 20.2032 167.282 19.9793C166.513 19.7432 165.626 19.6707 164.619 19.7619L162.272 19.9745L163.315 30.9959Z" fill="#EBEBEB"/>
<path d="M144.198 35.4237L149.744 17.8257L149.781 17.8224L158.535 34.1252L155.515 34.3987L153.792 31.1246L148.189 31.6322L147.11 35.1601L144.198 35.4237ZM148.944 29.1425L152.564 28.8146L151.515 26.8369C151.291 26.4168 151.081 26.0079 150.885 25.6099C150.687 25.1998 150.489 24.7225 150.29 24.1779C150.21 24.7478 150.11 25.2459 149.992 25.6725C149.885 26.0979 149.756 26.5437 149.604 27.0099L148.944 29.1425Z" fill="#EBEBEB"/>
<path d="M142.076 36.1663L130.901 26.6679L131.836 36.5435L129.052 36.7956L127.451 19.8816L127.487 19.8783L138.661 29.3585L137.728 19.5011L140.511 19.2489L142.112 36.163L142.076 36.1663Z" fill="#EBEBEB"/>
<path d="M117.542 38.1682C116.354 38.2759 115.217 38.1587 114.133 37.8167C113.047 37.4626 112.067 36.9337 111.193 36.2303C110.331 35.5257 109.627 34.6784 109.081 33.6885C108.547 32.6974 108.224 31.6138 108.113 30.4377C108.001 29.2616 108.115 28.1385 108.454 27.0683C108.806 25.9971 109.339 25.0378 110.054 24.1904C110.781 23.3419 111.645 22.6522 112.647 22.1212C113.648 21.5781 114.742 21.2527 115.931 21.1451C117.132 21.0363 118.275 21.159 119.361 21.5131C120.445 21.8551 121.418 22.3784 122.28 23.083C123.142 23.7876 123.846 24.6348 124.392 25.6248C124.939 26.6148 125.267 27.6978 125.379 28.8739C125.49 30.05 125.37 31.1737 125.019 32.2449C124.668 33.3162 124.135 34.2755 123.42 35.1229C122.705 35.9703 121.847 36.6655 120.846 37.2086C119.844 37.7396 118.743 38.0595 117.542 38.1682ZM117.27 35.2947C118.047 35.2243 118.754 35.0135 119.394 34.6621C120.034 34.3106 120.584 33.8572 121.045 33.3019C121.505 32.7344 121.843 32.0985 122.057 31.3942C122.272 30.69 122.342 29.9438 122.268 29.1557C122.193 28.3676 121.984 27.6467 121.641 26.9929C121.298 26.3392 120.847 25.7808 120.289 25.3177C119.731 24.8425 119.104 24.4896 118.409 24.259C117.714 24.0163 116.977 23.9301 116.201 24.0004C115.425 24.0707 114.718 24.2877 114.079 24.6512C113.44 25.0026 112.89 25.4621 112.43 26.0296C111.981 26.5839 111.643 27.2137 111.416 27.919C111.201 28.6233 111.131 29.3695 111.206 30.1576C111.28 30.9457 111.489 31.6666 111.832 32.3203C112.188 32.973 112.639 33.5374 113.185 34.0138C113.743 34.4769 114.369 34.8237 115.064 35.0543C115.759 35.2848 116.494 35.365 117.27 35.2947ZM112.183 20.1271L111.423 18.1049C111.631 17.5968 111.93 17.1968 112.318 16.9048C112.707 16.6129 113.131 16.446 113.592 16.4043C114.065 16.3614 114.524 16.4238 114.968 16.5915C115.412 16.7592 115.844 16.9279 116.263 17.0978C116.683 17.2677 117.087 17.335 117.475 17.2999C117.864 17.2647 118.187 17.1254 118.445 16.8819C118.714 16.6251 118.927 16.2819 119.082 15.852L119.844 17.8925C119.634 18.3884 119.334 18.7824 118.946 19.0743C118.57 19.3652 118.145 19.5321 117.672 19.5749C117.211 19.6167 116.753 19.5542 116.297 19.3877C115.853 19.22 115.421 19.0512 115.001 18.8814C114.593 18.7104 114.189 18.643 113.789 18.6793C113.413 18.7134 113.084 18.8593 112.803 19.1171C112.534 19.3739 112.327 19.7105 112.183 20.1271Z" fill="#EBEBEB"/>
<path d="M101.813 39.5929C101.158 39.6522 100.513 39.6189 99.8769 39.4931C99.2544 39.3783 98.6813 39.204 98.1576 38.9701C97.6327 38.7242 97.1772 38.4353 96.791 38.1034L97.293 34.6828C97.6179 35.1425 98.0115 35.5532 98.4739 35.9149C98.9473 36.2633 99.4557 36.5291 99.999 36.7122C100.555 36.8943 101.111 36.96 101.669 36.9095C102.154 36.8655 102.558 36.7373 102.881 36.5246C103.214 36.2988 103.463 36.0194 103.627 35.6866C103.79 35.3417 103.853 34.9752 103.817 34.5872C103.772 34.1143 103.626 33.7362 103.379 33.4529C103.132 33.1695 102.854 32.9501 102.546 32.7946C102.236 32.627 101.974 32.504 101.759 32.4257L99.7189 31.6199C99.1975 31.4103 98.6715 31.1522 98.1409 30.8457C97.6092 30.527 97.1471 30.1041 96.7547 29.5772C96.3732 29.0369 96.1429 28.3485 96.0637 27.5119C95.9995 26.833 96.0567 26.2102 96.2356 25.6437C96.4253 25.064 96.7196 24.5543 97.1184 24.1147C97.5172 23.675 98.0095 23.3186 98.5953 23.0454C99.1811 22.7722 99.85 22.6016 100.602 22.5335C101.548 22.4478 102.4 22.5296 103.158 22.7789C103.926 23.015 104.551 23.2825 105.032 23.5813L104.561 26.9441C104.232 26.5703 103.853 26.244 103.422 25.965C103.004 25.6849 102.562 25.4742 102.096 25.333C101.63 25.1918 101.167 25.142 100.706 25.1838C100.294 25.2211 99.9434 25.3324 99.655 25.5174C99.3777 25.6893 99.1728 25.9158 99.0404 26.1968C98.9068 26.4657 98.8561 26.7699 98.8882 27.1094C98.9192 27.4367 99.019 27.7151 99.1875 27.9444C99.3681 28.1726 99.5944 28.3661 99.8663 28.5249C100.137 28.6716 100.425 28.8045 100.73 28.9236L102.788 29.7278C103.105 29.8458 103.463 30.009 103.862 30.2175C104.273 30.4248 104.678 30.6999 105.077 31.0428C105.476 31.3736 105.815 31.7953 106.096 32.3079C106.388 32.8073 106.569 33.4208 106.638 34.1483C106.726 35.0819 106.587 35.9443 106.222 36.7356C105.856 37.5269 105.3 38.1765 104.553 38.6844C103.806 39.1923 102.893 39.4951 101.813 39.5929Z" fill="#EBEBEB"/>
<path d="M88.6213 40.806C87.5054 40.9071 86.4885 40.7608 85.5704 40.367C84.6523 39.9732 83.8978 39.369 83.3069 38.5543C82.7281 37.7385 82.3831 36.7425 82.2717 35.5664L81.2354 24.6177L84.292 24.3409L85.3146 35.1441C85.3731 35.7624 85.5455 36.291 85.8316 36.7298C86.1178 37.1685 86.4792 37.4965 86.9157 37.7138C87.3643 37.93 87.8615 38.0133 88.4074 37.9639C88.941 37.9156 89.4087 37.7509 89.8103 37.47C90.2107 37.1769 90.511 36.7951 90.7111 36.3245C90.9112 35.8539 90.9837 35.3276 90.9286 34.7456L89.8957 23.8333L92.8432 23.5664L93.8743 34.4605C93.9868 35.6487 93.8357 36.7018 93.421 37.6199C93.0064 38.5379 92.3847 39.2729 91.5562 39.8248C90.7398 40.3757 89.7615 40.7028 88.6213 40.806Z" fill="#EBEBEB"/>
<path d="M73.3784 41.8381L71.8291 25.4697L74.8857 25.1929L76.182 38.8878L81.2763 38.4264L81.5293 41.0999L73.3784 41.8381Z" fill="#EBEBEB"/>
<path d="M64.2386 43.0144C63.1227 43.1155 62.1057 42.9692 61.1876 42.5754C60.2696 42.1816 59.5151 41.5774 58.9242 40.7627C58.3454 39.9469 58.0003 38.9509 57.889 37.7748L56.8527 26.8261L59.9092 26.5493L60.9318 37.3525C60.9903 37.9708 61.1627 38.4994 61.4489 38.9382C61.7351 39.3769 62.0964 39.7049 62.5329 39.9222C62.9816 40.1384 63.4788 40.2217 64.0246 40.1723C64.5583 40.124 65.0259 39.9593 65.4275 39.6784C65.8279 39.3853 66.1282 39.0035 66.3283 38.5329C66.5284 38.0623 66.601 37.536 66.5459 36.954L65.513 26.0417L68.4604 25.7748L69.4916 36.6689C69.604 37.8571 69.4529 38.9102 69.0383 39.8283C68.6236 40.7463 68.002 41.4813 67.1734 42.0333C66.357 42.5841 65.3787 42.9112 64.2386 43.0144Z" fill="#EBEBEB"/>
<path d="M42.8809 44.6004L48.4267 27.0023L48.463 26.999L57.2177 43.3018L54.1975 43.5754L52.4746 40.3013L46.8709 40.8088L45.7919 44.3367L42.8809 44.6004ZM47.6261 38.3191L51.2467 37.9912L50.1971 36.0135C49.9738 35.5935 49.7639 35.1845 49.5672 34.7866C49.3693 34.3765 49.1712 33.8992 48.9729 33.3546C48.8922 33.9244 48.7926 34.4226 48.6739 34.8491C48.5674 35.2745 48.4383 35.7204 48.2867 36.1865L47.6261 38.3191Z" fill="#EBEBEB"/>
<path d="M33.5934 45.4415L32.0441 29.0731L35.1007 28.7963L36.3969 42.4912L41.4912 42.0298L41.7443 44.7033L33.5934 45.4415Z" fill="#EBEBEB"/>
</svg>